<svg width="66" height="66" viewBox="0 0 66 66" fill="none" xmlns="http://www.w3.org/2000/svg">
<g clip-path="url(#clip0_1122_7)">
<path d="M32.759 0C14.696 0 0 14.695 0 32.759C0 50.823 14.695 65.518 32.759 65.518C50.823 65.518 65.518 50.823 65.518 32.759C65.518 14.695 50.822 0 32.759 0ZM6 32.759C6 18.004 18.004 6 32.759 6C39.407 6 45.493 8.443 50.178 12.472L12.472 50.178C8.443 45.493 6 39.407 6 32.759ZM32.759 59.518C26.811 59.518 21.312 57.565 16.864 54.27L54.269 16.865C57.564 21.313 59.517 26.812 59.517 32.76C59.518 47.514 47.514 59.518 32.759 59.518Z" fill="#4A4E69"/>
</g>
<defs>
<clipPath id="clip0_1122_7">
<rect width="65.518" height="65.518" fill="white"/>
</clipPath>
</defs>
</svg>
