<svg width="25" height="25" viewBox="0 0 25 25" fill="none" xmlns="http://www.w3.org/2000/svg">
<path d="M24.0847 3.77222L21.2278 0.915283C20.6417 0.329199 19.8469 0 19.0181 0H17.1875V5.46875C17.1875 5.9002 16.8377 6.25 16.4062 6.25H3.90625C3.4748 6.25 3.125 5.9002 3.125 5.46875V0H1.5625C0.699609 0 0 0.699512 0 1.5625V23.4375C0 24.3004 0.699609 25 1.5625 25H23.4375C24.3004 25 25 24.3004 25 23.4375V5.98193C25 5.15308 24.6708 4.35825 24.0847 3.77222ZM21.875 21.875H3.125V12.5H21.875V21.875Z" fill="#4A4E69"/>
<path d="M14.0625 0H10.9375V4.6875H14.0625V0Z" fill="#4A4E69"/>
</svg>
