<svg width="25" height="25" viewBox="0 0 25 25" fill="none" xmlns="http://www.w3.org/2000/svg">
<path d="M12.5 0C5.60762 0 0 5.60724 0 12.5C0 19.3928 5.60724 25 12.5 25C19.3928 25 25 19.3928 25 12.5C25 5.60724 19.3924 0 12.5 0ZM2.28945 12.5C2.28945 6.86987 6.86987 2.28945 12.5 2.28945C15.0367 2.28945 17.359 3.22163 19.1466 4.759L4.759 19.1466C3.22163 17.359 2.28945 15.0367 2.28945 12.5ZM12.5 22.7106C10.2304 22.7106 8.13212 21.9653 6.43487 20.7081L20.7077 6.43525C21.965 8.1325 22.7102 10.2308 22.7102 12.5004C22.7106 18.1301 18.1301 22.7106 12.5 22.7106Z" fill="#4A4E69"/>
</svg>
