<svg width="35" height="35" viewBox="0 0 35 35" fill="none" xmlns="http://www.w3.org/2000/svg">
<rect width="35" height="35" fill="#22223B"/>
<path d="M33.6916 3.70703H1.3084C0.585518 3.70703 0 4.29327 0 5.01555V29.9846C0 30.7069 0.585518 31.293 1.3084 31.293H33.6916C34.4139 31.293 35 30.7069 35 29.9846V5.01555C35 4.29327 34.4139 3.70703 33.6916 3.70703ZM32.0568 26.4407C32.0568 27.163 31.4707 27.7491 30.7484 27.7491H6.97835C6.25547 27.7491 5.66995 27.163 5.66995 26.4407V8.55933C5.66995 7.83705 6.25547 7.25093 6.97835 7.25093H30.7483C31.4705 7.25093 32.0567 7.83705 32.0567 8.55933V26.4407H32.0568Z" fill="white"/>
<path d="M8.83217 26.0334H28.5676C29.2898 26.0334 29.7242 25.4682 29.5351 24.7695L26.3995 13.1221C26.2112 12.4241 25.9004 11.9929 25.7048 12.1584C25.5092 12.3239 25.1552 13.0102 24.9146 13.6918L22.3527 20.9306C22.1119 21.6123 21.5768 21.6869 21.1581 21.098L18.9129 17.9402C18.4936 17.3515 17.8027 17.3423 17.3683 17.9199L14.9615 21.1189C14.527 21.6966 13.74 21.7725 13.203 21.289L12.4219 20.5851C11.8849 20.1017 11.1403 20.207 10.7595 20.8207L8.21405 24.9219C7.83325 25.5356 8.10929 26.0334 8.83217 26.0334Z" fill="white"/>
<path d="M13.7381 16.0017C14.7617 16.0017 15.5915 15.1719 15.5915 14.1483C15.5915 13.1247 14.7617 12.2949 13.7381 12.2949C12.7146 12.2949 11.8848 13.1247 11.8848 14.1483C11.8848 15.1719 12.7146 16.0017 13.7381 16.0017Z" fill="white"/>
</svg>
